<?xml version="1.0" standalone="no"?>
<!DOCTYPE svg PUBLIC "-//W3C//DTD SVG 20010904//EN"
 "http://www.w3.org/TR/2001/REC-SVG-20010904/DTD/svg10.dtd">
<svg version="1.0" xmlns="http://www.w3.org/2000/svg"
 width="1024.000000pt" height="1024.000000pt" viewBox="0 0 1024.000000 1024.000000"
 preserveAspectRatio="xMidYMid meet">
<metadata>
Created by potrace 1.11, written by Peter Selinger 2001-2013
</metadata>
<g transform="translate(0.000000,1024.000000) scale(0.100000,-0.100000)"
fill="#000000" stroke="none">
<path d="M2519 10236 c-2 -2 -67 -6 -144 -10 -77 -3 -158 -8 -180 -11 -22 -2
-80 -9 -130 -15 -149 -18 -155 -19 -183 -24 -15 -3 -40 -8 -57 -11 -74 -12
-96 -17 -185 -41 -281 -75 -568 -220 -802 -407 -305 -243 -551 -599 -682 -987
-77 -230 -120 -488 -143 -860 -10 -164 -10 -5313 0 -5496 4 -77 9 -151 12
-165 2 -13 6 -58 10 -99 3 -41 8 -91 11 -110 14 -94 35 -212 49 -275 9 -38 18
-78 20 -88 15 -68 97 -281 144 -378 228 -461 534 -767 997 -998 166 -83 408
-163 559 -185 23 -4 52 -9 65 -11 14 -3 45 -8 70 -10 25 -3 52 -8 60 -10 8 -2
47 -7 87 -10 40 -4 85 -8 100 -10 141 -16 654 -20 2923 -20 2311 0 2767 3
2910 20 19 2 67 7 105 10 178 15 420 63 570 112 335 109 661 312 900 562 84
88 265 324 265 345 0 3 15 29 33 58 129 204 248 556 282 828 3 25 8 61 10 80
3 19 7 60 10 90 4 30 8 71 10 90 17 141 20 641 20 2935 0 2295 -4 2810 -20
2906 -2 13 -6 57 -10 98 -3 40 -7 76 -9 80 -2 3 -7 33 -10 66 -3 33 -8 71 -11
85 -7 34 -14 69 -20 105 -3 17 -11 48 -17 70 -5 22 -12 50 -14 63 -9 47 -93
271 -135 357 -117 244 -272 461 -449 630 -82 79 -97 91 -191 162 -271 203
-608 352 -924 408 -16 2 -39 7 -50 9 -11 2 -42 7 -70 10 -105 13 -141 18 -165
21 -14 2 -61 7 -105 11 -44 3 -102 9 -130 11 -58 6 -5380 15 -5386 9z"/>
</g>
</svg>
